<svg width="263" height="227" viewBox="0 0 263 227" fill="none" xmlns="http://www.w3.org/2000/svg">
    <g clip-path="url(#clip0_15_1134)">
        <ellipse cx="129" cy="105.5" rx="86" ry="85.5" fill="#D9D9D9"/>
        <path fill-rule="evenodd" clip-rule="evenodd" d="M107.085 53.8596C87.1332 51.0783 66.8736 51.0783 46.922 53.8596C42.1173 54.5308 37.686 56.7509 34.3428 60.1619C30.9996 63.5728 28.9394 67.9757 28.4945 72.6604L27.644 81.7926C25.6638 102.887 25.6638 124.113 27.644 145.207L28.5012 154.34C28.9458 159.023 31.005 163.426 34.3469 166.836C37.6888 170.247 42.1185 172.468 46.922 173.14C66.8682 175.921 87.1317 175.921 107.078 173.14C111.883 172.469 116.314 170.249 119.657 166.838C123 163.427 125.061 159.024 125.505 154.34L126.356 145.207C128.334 124.111 128.334 102.883 126.356 81.7926L125.499 72.6604C125.059 67.975 123.001 63.5704 119.658 60.1587C116.316 56.7471 111.883 54.5277 107.078 53.8596M63.5 93.875C63.5 90.4051 64.9223 87.0773 67.454 84.6237C69.9858 82.1701 73.4196 80.7917 77 80.7917C80.5804 80.7917 84.0142 82.1701 86.5459 84.6237C89.0777 87.0773 90.5 90.4051 90.5 93.875C90.5 97.3449 89.0777 100.673 86.5459 103.126C84.0142 105.58 80.5804 106.958 77 106.958C73.4196 106.958 69.9858 105.58 67.454 103.126C64.9223 100.673 63.5 97.3449 63.5 93.875ZM50 136.396C50 131.191 52.1335 126.199 55.9311 122.519C59.7287 118.838 64.8794 116.771 70.25 116.771H83.75C89.1206 116.771 94.2713 118.838 98.0689 122.519C101.867 126.199 104 131.191 104 136.396C104 138.131 103.289 139.795 102.023 141.022C100.757 142.248 99.0402 142.938 97.25 142.938H56.75C54.9598 142.938 53.2429 142.248 51.977 141.022C50.7111 139.795 50 138.131 50 136.396Z" fill="black"/>
        <path d="M157.3 46.375C158.084 44.3421 159.63 42.628 161.667 41.5361C163.703 40.4442 166.096 40.0451 168.424 40.4094C170.752 40.7737 172.863 41.8779 174.384 43.5265C175.904 45.1751 176.737 47.2617 176.733 49.4166C176.733 55.5 166.733 58.5416 166.733 58.5416M167 70.7083H167.033M200.333 55.5C200.333 72.2986 185.409 85.9166 167 85.9166C148.59 85.9166 133.667 72.2986 133.667 55.5C133.667 38.7013 148.59 25.0833 167 25.0833C185.409 25.0833 200.333 38.7013 200.333 55.5Z" stroke="#1E1E1E" stroke-width="4" stroke-linecap="round" stroke-linejoin="round"/>
        <path fill-rule="evenodd" clip-rule="evenodd" d="M186.25 115.833C186.25 115.546 186.153 115.27 185.982 115.067C185.81 114.864 185.576 114.75 185.333 114.75H159.667C156.992 114.75 154.428 116.006 152.537 118.24C150.646 120.475 149.583 123.506 149.583 126.667V187.333C149.583 190.494 150.646 193.525 152.537 195.76C154.428 197.994 156.992 199.25 159.667 199.25H196.333C199.008 199.25 201.572 197.994 203.463 195.76C205.354 193.525 206.417 190.494 206.417 187.333V144.637C206.417 144.35 206.32 144.074 206.148 143.871C205.976 143.668 205.743 143.554 205.5 143.554H189C188.271 143.554 187.571 143.211 187.055 142.602C186.54 141.992 186.25 141.166 186.25 140.304V115.833ZM189 158.083C189.729 158.083 190.429 158.426 190.945 159.035C191.46 159.645 191.75 160.471 191.75 161.333C191.75 162.195 191.46 163.022 190.945 163.631C190.429 164.241 189.729 164.583 189 164.583H167C166.271 164.583 165.571 164.241 165.055 163.631C164.54 163.022 164.25 162.195 164.25 161.333C164.25 160.471 164.54 159.645 165.055 159.035C165.571 158.426 166.271 158.083 167 158.083H189ZM189 175.417C189.729 175.417 190.429 175.759 190.945 176.369C191.46 176.978 191.75 177.805 191.75 178.667C191.75 179.529 191.46 180.355 190.945 180.965C190.429 181.574 189.729 181.917 189 181.917H167C166.271 181.917 165.571 181.574 165.055 180.965C164.54 180.355 164.25 179.529 164.25 178.667C164.25 177.805 164.54 176.978 165.055 176.369C165.571 175.759 166.271 175.417 167 175.417H189Z" fill="black"/>
        <path d="M191.75 117.237C191.75 116.44 192.458 115.933 192.982 116.431C193.427 116.856 193.822 117.35 194.166 117.913L205.214 136.1C205.463 136.516 205.192 137.054 204.759 137.054H192.667C192.424 137.054 192.19 136.94 192.018 136.736C191.847 136.533 191.75 136.258 191.75 135.97V117.237Z" fill="black"/>
    </g>
    <defs>
        <clipPath id="clip0_15_1134">
            <rect width="263" height="227" fill="white"/>
        </clipPath>
    </defs>
</svg>
