<svg width="308" height="285" viewBox="0 0 308 285" fill="none" xmlns="http://www.w3.org/2000/svg">
    <ellipse cx="146.5" cy="147.5" rx="94.5" ry="92.5" fill="#D9D9D9"/>
    <g clip-path="url(#clip0_15_1135)">
        <path d="M185.04 62.3861C185.04 59.3875 182.612 56.9579 179.616 56.9579H173.372C170.371 56.9579 167.943 59.3875 167.943 62.3861C167.943 64.8585 166.251 66.9802 163.947 67.887C163.582 68.0353 163.222 68.1865 162.866 68.3405C160.596 69.3243 157.899 69.0249 156.147 67.2753C155.129 66.2592 153.75 65.6886 152.313 65.6886C150.875 65.6886 149.496 66.2592 148.479 67.2753L144.059 71.6983C143.044 72.7168 142.474 74.0967 142.474 75.5353C142.474 76.9739 143.044 78.3538 144.059 79.3723C145.812 81.1261 146.111 83.8209 145.119 86.0966C144.964 86.4547 144.814 86.8155 144.67 87.1788C143.764 89.4844 141.644 91.1783 139.174 91.1783C136.178 91.1783 133.75 93.608 133.75 96.6065V102.86C133.75 105.859 136.178 108.289 139.174 108.289C141.644 108.289 143.764 109.982 144.67 112.288C144.819 112.653 144.968 113.014 145.119 113.37C146.107 115.642 145.807 118.341 144.059 120.095C143.044 121.113 142.474 122.493 142.474 123.932C142.474 125.37 143.044 126.75 144.059 127.769L148.479 132.191C149.496 133.208 150.875 133.778 152.313 133.778C153.75 133.778 155.129 133.208 156.147 132.191C157.899 130.438 160.592 130.138 162.866 131.126C163.222 131.283 163.582 131.434 163.947 131.58C166.251 132.487 167.943 134.608 167.943 137.081C167.943 140.079 170.371 142.509 173.367 142.509H179.616C182.612 142.509 185.04 140.079 185.04 137.081C185.04 134.608 186.733 132.487 189.036 131.576C189.401 131.433 189.762 131.285 190.118 131.131C192.387 130.138 195.084 130.442 196.832 132.191C197.85 133.209 199.23 133.78 200.668 133.78C202.107 133.78 203.487 133.209 204.505 132.191L208.924 127.769C209.939 126.75 210.51 125.37 210.51 123.932C210.51 122.493 209.939 121.113 208.924 120.095C207.172 118.341 206.872 115.646 207.86 113.37C208.016 113.014 208.168 112.653 208.313 112.288C209.219 109.982 211.339 108.289 213.809 108.289C216.806 108.289 219.233 105.859 219.233 102.86V96.6108C219.233 93.6122 216.806 91.1826 213.809 91.1826C211.339 91.1826 209.219 89.4887 208.309 87.1831C208.165 86.8198 208.016 86.459 207.86 86.1009C206.877 83.8295 207.176 81.1303 208.924 79.3765C209.939 78.3581 210.51 76.9782 210.51 75.5396C210.51 74.1009 209.939 72.721 208.924 71.7026L204.505 67.2796C203.487 66.2635 202.108 65.6929 200.671 65.6929C199.233 65.6929 197.854 66.2635 196.837 67.2796C195.084 69.0334 192.392 69.3328 190.118 68.3447C189.76 68.1874 189.399 68.0363 189.036 67.8913C186.733 66.9802 185.04 64.8542 185.04 62.3861Z" stroke="black" stroke-width="2"/>
        <path d="M193.588 99.7334C193.588 104.271 191.787 108.623 188.581 111.832C185.375 115.041 181.026 116.844 176.492 116.844C171.957 116.844 167.609 115.041 164.403 111.832C161.196 108.623 159.395 104.271 159.395 99.7334C159.395 95.1955 161.196 90.8435 164.403 87.6347C167.609 84.4259 171.957 82.6232 176.492 82.6232C181.026 82.6232 185.375 84.4259 188.581 87.6347C191.787 90.8435 193.588 95.1955 193.588 99.7334Z" stroke="black" stroke-width="2"/>
    </g>
    <path d="M114.667 103.219C114.667 101.671 113.341 100.417 111.706 100.417H108.297C106.659 100.417 105.333 101.671 105.333 103.219C105.333 104.495 104.409 105.591 103.152 106.059C102.953 106.136 102.756 106.214 102.561 106.293C101.322 106.801 99.85 106.646 98.8934 105.743C98.3378 105.219 97.5851 104.924 96.8004 104.924C96.0156 104.924 95.2629 105.219 94.7074 105.743L92.2947 108.027C91.7404 108.552 91.4291 109.265 91.4291 110.007C91.4291 110.75 91.7404 111.463 92.2947 111.988C93.2514 112.894 93.4147 114.285 92.8734 115.46C92.7883 115.645 92.7066 115.831 92.6284 116.019C92.1337 117.209 90.9764 118.083 89.6277 118.083C87.992 118.083 86.6667 119.338 86.6667 120.886V124.114C86.6667 125.662 87.992 126.917 89.6277 126.917C90.9764 126.917 92.1337 127.791 92.6284 128.981C92.7092 129.17 92.7909 129.356 92.8734 129.54C93.4124 130.713 93.249 132.106 92.2947 133.012C91.7404 133.537 91.4291 134.25 91.4291 134.993C91.4291 135.735 91.7404 136.448 92.2947 136.973L94.7074 139.257C95.2629 139.781 96.0156 140.076 96.8004 140.076C97.5851 140.076 98.3378 139.781 98.8934 139.257C99.85 138.351 101.32 138.197 102.561 138.707C102.756 138.788 102.953 138.866 103.152 138.941C104.409 139.409 105.333 140.505 105.333 141.781C105.333 143.329 106.659 144.583 108.294 144.583H111.706C113.341 144.583 114.667 143.329 114.667 141.781C114.667 140.505 115.591 139.409 116.848 138.939C117.047 138.865 117.244 138.789 117.439 138.709C118.678 138.197 120.15 138.354 121.104 139.257C121.66 139.782 122.413 140.077 123.199 140.077C123.984 140.077 124.737 139.782 125.293 139.257L127.705 136.973C128.26 136.448 128.571 135.735 128.571 134.993C128.571 134.25 128.26 133.537 127.705 133.012C126.749 132.106 126.585 130.715 127.124 129.54C127.21 129.356 127.292 129.17 127.372 128.981C127.866 127.791 129.024 126.917 130.372 126.917C132.008 126.917 133.333 125.662 133.333 124.114V120.888C133.333 119.34 132.008 118.086 130.372 118.086C129.024 118.086 127.866 117.211 127.369 116.021C127.291 115.833 127.209 115.647 127.124 115.462C126.588 114.289 126.751 112.896 127.705 111.991C128.26 111.465 128.571 110.752 128.571 110.01C128.571 109.267 128.26 108.555 127.705 108.029L125.293 105.745C124.737 105.221 123.984 104.926 123.2 104.926C122.415 104.926 121.662 105.221 121.107 105.745C120.15 106.651 118.68 106.805 117.439 106.295C117.243 106.214 117.047 106.136 116.848 106.061C115.591 105.591 114.667 104.493 114.667 103.219Z" stroke="black" stroke-width="2"/>
    <path d="M119.333 122.5C119.333 124.843 118.35 127.09 116.6 128.746C114.849 130.403 112.475 131.333 110 131.333C107.525 131.333 105.151 130.403 103.4 128.746C101.65 127.09 100.667 124.843 100.667 122.5C100.667 120.157 101.65 117.91 103.4 116.254C105.151 114.597 107.525 113.667 110 113.667C112.475 113.667 114.849 114.597 116.6 116.254C118.35 117.91 119.333 120.157 119.333 122.5Z" stroke="black" stroke-width="2"/>
    <path d="M210 202.417C215.409 202.417 220.305 199.92 223.849 195.885C227.39 191.855 229.583 186.282 229.583 180.125C229.583 173.968 227.39 168.395 223.849 164.365C220.305 160.33 215.409 157.833 210 157.833C204.591 157.833 199.695 160.33 196.151 164.365C192.61 168.395 190.417 173.968 190.417 180.125C190.417 186.282 192.61 191.855 196.151 195.885C197.969 197.956 200.128 199.598 202.505 200.719C204.881 201.84 207.428 202.417 210 202.417ZM241.333 206.875C242.62 206.878 243.894 206.592 245.083 206.033C246.273 205.473 247.353 204.653 248.263 203.617C249.173 202.581 249.894 201.352 250.385 199.998C250.876 198.644 251.128 197.194 251.125 195.729C251.125 192.653 250.032 189.866 248.258 187.847C247.349 186.812 246.269 185.991 245.081 185.431C243.893 184.871 242.619 184.583 241.333 184.583C240.047 184.58 238.772 184.867 237.583 185.426C236.394 185.985 235.314 186.806 234.404 187.841C233.494 188.877 232.773 190.107 232.282 191.46C231.791 192.814 231.539 194.265 231.542 195.729C231.54 197.194 231.791 198.644 232.283 199.997C232.774 201.351 233.495 202.58 234.405 203.616C235.315 204.651 236.395 205.472 237.584 206.031C238.773 206.591 240.047 206.877 241.333 206.875ZM241.333 209.505C236.12 209.505 232.2 211.316 229.908 213.821C225.541 209.733 218.636 206.875 210 206.875C201.125 206.875 194.353 209.764 190.056 213.848C187.722 211.329 183.758 209.505 178.667 209.505C170.097 209.505 164.958 214.365 164.958 219.234C164.958 221.663 170.097 224.102 178.667 224.102C181.032 224.102 183.155 223.875 185.023 223.509L184.867 224.713C184.867 229.171 194.29 233.629 210 233.629C224.734 233.629 235.133 229.171 235.133 224.713L235.055 223.576C236.868 223.901 238.952 224.102 241.333 224.102C249.366 224.102 255.042 221.663 255.042 219.234C255.042 214.365 249.664 209.505 241.333 209.505ZM178.667 206.875C181.369 206.875 183.817 205.631 185.591 203.612C186.5 202.576 187.222 201.347 187.714 199.995C188.205 198.642 188.459 197.193 188.458 195.729C188.461 194.265 188.209 192.814 187.718 191.46C187.227 190.107 186.506 188.877 185.596 187.841C184.686 186.806 183.606 185.985 182.417 185.426C181.228 184.867 179.953 184.58 178.667 184.583C177.38 184.581 176.106 184.868 174.917 185.427C173.728 185.986 172.648 186.807 171.738 187.843C170.829 188.878 170.107 190.108 169.616 191.461C169.125 192.814 168.873 194.265 168.875 195.729C168.872 197.194 169.124 198.644 169.615 199.998C170.106 201.352 170.827 202.581 171.737 203.617C172.647 204.653 173.727 205.473 174.916 206.033C176.106 206.592 177.38 206.878 178.667 206.875Z" fill="black"/>
    <path d="M123.018 165.204H57.9363C49.6759 165.204 42.9174 172.098 42.9174 180.525V216.277C42.9174 224.704 49.6759 231.598 57.9363 231.598H62.9425V246.92L77.9614 231.598H123.018C131.278 231.598 138.037 224.704 138.037 216.277V180.525C138.037 172.098 131.278 165.204 123.018 165.204ZM128.024 216.277C128.024 219.045 125.731 221.384 123.018 221.384H57.9363C55.2228 221.384 52.93 219.045 52.93 216.277V180.525C52.93 177.757 55.2228 175.418 57.9363 175.418H123.018C125.731 175.418 128.024 177.757 128.024 180.525V216.277ZM67.9488 208.616C66.6336 208.615 65.3314 208.351 64.1164 207.837C62.9014 207.323 61.7976 206.57 60.8678 205.621C59.9381 204.672 59.2006 203.546 58.6976 202.306C58.1946 201.066 57.9359 199.738 57.9363 198.396C57.9366 197.054 58.196 195.726 58.6996 194.486C59.2032 193.247 59.9411 192.121 60.8714 191.172C61.8016 190.224 62.9058 189.471 64.121 188.958C65.3362 188.445 66.6386 188.181 67.9538 188.181C70.61 188.182 73.1571 189.259 75.0348 191.176C76.9125 193.092 77.967 195.691 77.9664 198.401C77.9657 201.111 76.9099 203.709 75.0313 205.625C73.1526 207.54 70.605 208.616 67.9488 208.616ZM67.9488 193.294C66.6211 193.294 65.3477 193.832 64.4088 194.79C63.47 195.747 62.9425 197.046 62.9425 198.401C62.9425 199.756 63.47 201.055 64.4088 202.012C65.3477 202.97 66.6211 203.508 67.9488 203.508C69.2766 203.508 70.5499 202.97 71.4888 202.012C72.4276 201.055 72.9551 199.756 72.9551 198.401C72.9551 197.046 72.4276 195.747 71.4888 194.79C70.5499 193.832 69.2766 193.294 67.9488 193.294ZM90.4771 208.616C89.1619 208.615 87.8596 208.351 86.6446 207.837C85.4297 207.323 84.3258 206.57 83.3961 205.621C82.4663 204.672 81.7289 203.546 81.2259 202.306C80.7229 201.066 80.4642 199.738 80.4645 198.396C80.4648 197.054 80.7242 195.726 81.2278 194.486C81.7314 193.247 82.4694 192.121 83.3996 191.172C84.3298 190.224 85.4341 189.471 86.6493 188.958C87.8645 188.445 89.1669 188.181 90.4821 188.181C93.1382 188.182 95.6853 189.259 97.563 191.176C99.4408 193.092 100.495 195.691 100.495 198.401C100.494 201.111 99.4382 203.709 97.5595 205.625C95.6808 207.54 93.1332 208.616 90.4771 208.616ZM90.4771 193.294C89.1493 193.294 87.8759 193.832 86.9371 194.79C85.9982 195.747 85.4708 197.046 85.4708 198.401C85.4708 199.756 85.9982 201.055 86.9371 202.012C87.8759 202.97 89.1493 203.508 90.4771 203.508C91.8048 203.508 93.0782 202.97 94.017 202.012C94.9559 201.055 95.4833 199.756 95.4833 198.401C95.4833 197.046 94.9559 195.747 94.017 194.79C93.0782 193.832 91.8048 193.294 90.4771 193.294ZM113.005 208.616C111.69 208.615 110.388 208.351 109.173 207.837C107.958 207.323 106.854 206.57 105.924 205.621C104.995 204.672 104.257 203.546 103.754 202.306C103.251 201.066 102.992 199.738 102.993 198.396C102.993 197.054 103.252 195.726 103.756 194.486C104.26 193.247 104.998 192.121 105.928 191.172C106.858 190.224 107.962 189.471 109.178 188.958C110.393 188.445 111.695 188.181 113.01 188.181C115.666 188.182 118.214 189.259 120.091 191.176C121.969 193.092 123.024 195.691 123.023 198.401C123.022 201.111 121.966 203.709 120.088 205.625C118.209 207.54 115.661 208.616 113.005 208.616ZM113.005 193.294C111.678 193.294 110.404 193.832 109.465 194.79C108.526 195.747 107.999 197.046 107.999 198.401C107.999 199.756 108.526 201.055 109.465 202.012C110.404 202.97 111.678 203.508 113.005 203.508C114.333 203.508 115.606 202.97 116.545 202.012C117.484 201.055 118.012 199.756 118.012 198.401C118.012 197.046 117.484 195.747 116.545 194.79C115.606 193.832 114.333 193.294 113.005 193.294Z" fill="black"/>
    <defs>
        <clipPath id="clip0_15_1135">
            <rect width="93" height="95" fill="white" transform="translate(136 52)"/>
        </clipPath>
    </defs>
</svg>
