<svg width="295" height="257" viewBox="0 0 295 257" fill="none" xmlns="http://www.w3.org/2000/svg">
    <ellipse cx="141" cy="108.5" rx="86" ry="85.5" fill="#D9D9D9"/>
    <rect x="167.745" y="149.971" width="102" height="43" transform="rotate(15.7403 167.745 149.971)" fill="#E6E5E5"/>
    <path fill-rule="evenodd" clip-rule="evenodd" d="M94.0939 76.0097C74.0559 76.8386 54.679 82.4997 37.3465 92.5888L35.4775 93.6708C30.5997 96.5059 26.6154 100.808 23.9682 106.098C21.3211 111.387 20.1149 117.458 20.484 123.632C21.8007 145.704 28.1318 167.374 38.9047 186.683C41.7784 191.835 45.8109 196.14 50.5926 199.16C55.3742 202.181 60.7346 203.81 66.1292 203.881L74.2303 221.35C74.488 221.905 74.8737 222.382 75.3472 222.732C75.8207 223.083 76.3647 223.293 76.9226 223.341C77.4804 223.39 78.0318 223.275 78.5191 223.009C79.0065 222.742 79.4121 222.334 79.6937 221.826L91.2142 201.004C103.628 198.262 115.531 193.613 126.577 187.193L128.452 186.109C133.33 183.274 137.314 178.972 139.961 173.682C142.608 168.392 143.814 162.322 143.445 156.148C142.129 134.076 135.797 112.406 125.025 93.097C122.011 87.6942 117.725 83.2279 112.646 80.1955C107.566 77.163 101.891 75.6836 96.2534 75.9218L94.0939 76.0097ZM49.2334 114.654C48.0772 114.797 47.0234 115.373 46.248 116.284L46.1649 116.308C44.3609 118.407 42.8863 120.817 41.8029 123.463C40.9103 125.703 40.6768 127.772 40.9942 129.609C41.1832 130.697 41.5779 131.739 42.1514 132.665L42.2775 132.699C45.4063 137.452 48.9644 141.864 52.8992 145.845C58.133 151.521 63.9791 156.477 70.293 160.592L70.5009 160.774L70.7804 160.893L70.969 161.03L71.1814 161.14C77.682 164.924 84.5527 167.815 91.6276 169.743C99.697 171.88 104.431 172.619 107.17 172.705L107.182 172.745C107.985 172.781 108.683 172.699 109.354 172.503C111.435 171.711 113.172 170.162 114.283 168.105C115.66 165.645 116.641 162.936 117.187 160.082L117.173 160.036C117.636 157.186 116.544 154.947 114.354 153.85C109.917 151.505 105.306 149.622 100.586 148.226C97.4578 147.404 95.0383 149.161 94.4187 151.1L93.0387 155.047C92.3121 157.017 90.0731 157.428 90.0731 157.428L90.0252 157.485C72.4651 157.635 62.8173 140.696 62.8173 140.696C62.8173 140.696 61.8922 138.28 63.0254 136.577L65.1857 133.116C66.2181 131.443 66.3188 128.169 63.9545 125.659C60.3677 121.929 56.4776 118.567 52.3386 115.619C51.4153 114.912 50.3111 114.57 49.2196 114.651M74.3241 98.7347C73.5365 98.9648 72.8825 99.5322 72.506 100.312C72.1295 101.092 72.0612 102.021 72.3163 102.894C72.5713 103.767 73.1288 104.513 73.8661 104.968C74.6033 105.422 75.4599 105.548 76.2475 105.318C83.7604 103.123 90.7907 104.02 97.2494 107.793C100.618 109.902 103.583 112.702 105.958 116.024C108.342 119.35 110.092 123.134 111.095 127.142C111.205 127.579 111.392 127.993 111.645 128.36C111.897 128.727 112.211 129.04 112.569 129.282C113.29 129.769 114.144 129.934 114.942 129.741C115.74 129.547 116.418 129.011 116.825 128.25C117.233 127.489 117.337 126.566 117.115 125.683C115.868 120.757 113.717 116.107 110.797 112.023C107.863 107.919 104.214 104.474 100.081 101.907L100.002 101.858C91.9842 97.1622 83.2682 96.1216 74.3241 98.7347ZM77.2843 109.617C76.4967 109.847 75.8427 110.415 75.4662 111.195C75.0897 111.975 75.0214 112.903 75.2765 113.776C75.5315 114.649 76.089 115.395 76.8263 115.85C77.5635 116.305 78.4201 116.431 79.2077 116.201L79.3087 116.171C84.8501 115.017 89.3783 115.866 93.0997 118.344C96.9213 120.901 99.6173 124.679 101.024 129.913C101.261 130.791 101.803 131.55 102.532 132.023C103.261 132.495 104.116 132.643 104.909 132.433C105.702 132.223 106.369 131.672 106.763 130.903C107.156 130.133 107.244 129.207 107.007 128.329C105.155 121.46 101.45 116.148 96.1451 112.596L96.1413 112.582C90.7241 108.977 84.4682 108.061 77.6841 109.507L77.5793 109.524L77.2843 109.617ZM80.3932 120.677C79.9844 120.755 79.5987 120.922 79.2591 121.169C78.9195 121.417 78.6329 121.739 78.4165 122.117C78.2001 122.495 78.0583 122.921 77.9996 123.37C77.9408 123.818 77.9664 124.28 78.0746 124.728C78.1829 125.176 78.3717 125.6 78.6297 125.975C78.8878 126.351 79.2098 126.67 79.5765 126.914C79.9433 127.157 80.3472 127.321 80.7643 127.393C81.1814 127.466 81.603 127.448 82.0039 127.338C84.5288 126.758 86.3568 127.124 87.6796 127.945C89.0103 128.771 90.2837 130.35 91.2416 133.121C91.3781 133.561 91.5929 133.971 91.8733 134.326C92.1536 134.682 92.4938 134.977 92.8735 135.193C93.2532 135.409 93.6647 135.541 94.0834 135.583C94.5021 135.624 94.9194 135.573 95.3106 135.433C95.7018 135.294 96.0587 135.068 96.3602 134.769C96.6617 134.471 96.9015 134.106 97.0654 133.696C97.2293 133.286 97.3139 132.839 97.3141 132.383C97.3144 131.927 97.2303 131.47 97.0668 131.04C95.7227 127.146 93.5868 123.983 90.5501 122.083C87.5016 120.187 84.0063 119.851 80.3932 120.677Z" fill="black"/>
    <path d="M136.333 51.75C136.333 50.5344 136.895 49.3687 137.895 48.5091C138.896 47.6496 140.252 47.1667 141.667 47.1667H184.333C185.748 47.1667 187.104 47.6496 188.105 48.5091C189.105 49.3687 189.667 50.5344 189.667 51.75V79.25C189.667 80.4656 189.105 81.6314 188.105 82.4909C187.104 83.3505 185.748 83.8334 184.333 83.8334H141.667C140.252 83.8334 138.896 83.3505 137.895 82.4909C136.895 81.6314 136.333 80.4656 136.333 79.25V51.75Z" stroke="black" stroke-width="2" stroke-linecap="round" stroke-linejoin="round"/>
    <path d="M136.333 56.3334L156.336 70.0857C158.227 71.3862 160.578 72.0948 163 72.0948C165.422 72.0948 167.773 71.3862 169.664 70.0857L189.667 56.3334" stroke="black" stroke-width="2" stroke-linejoin="round"/>
    <rect x="160.044" y="158" width="96.9341" height="44.3977" transform="rotate(15.7403 160.044 158)" fill="#B0A6A6"/>
    <path d="M203.274 183.945C202.296 183.782 201.509 183.333 200.913 182.598C200.318 181.862 199.929 180.962 199.747 179.898C199.14 175.342 198.139 170.999 196.744 166.869C195.418 162.751 193.399 157.841 190.685 152.139C187.971 146.437 185.883 141.078 184.419 136.062C183.026 131.057 182.876 125.265 183.971 118.685C185.477 109.628 189.582 102.435 196.285 97.1067C203.07 91.7123 210.55 89.695 218.726 91.0548C226.901 92.4147 233.29 96.739 237.894 104.028C242.581 111.251 244.171 119.391 242.664 128.448C241.493 135.492 239.291 141.172 236.06 145.487C232.912 149.736 229.386 153.883 225.482 157.927C220.782 162.873 217.144 167.041 214.57 170.431C212.078 173.755 209.862 177.364 207.922 181.258C207.392 182.283 206.692 183.042 205.82 183.533C205.031 183.959 204.183 184.096 203.274 183.945ZM206.036 167.341C207.662 164.907 209.421 162.534 211.313 160.224C213.275 157.925 216.078 154.891 219.721 151.122C223.446 147.287 226.555 143.707 229.047 140.383C231.621 136.992 233.365 132.549 234.28 127.053C235.348 120.628 234.195 114.828 230.819 109.653C227.526 104.411 222.98 101.309 217.18 100.344C211.381 99.3792 206.04 100.838 201.158 104.719C196.358 108.535 193.424 113.655 192.356 120.08C191.441 125.576 191.619 130.338 192.887 134.368C194.238 138.331 196.056 142.731 198.339 147.565C200.566 152.311 202.2 156.083 203.243 158.882C204.355 161.692 205.286 164.512 206.036 167.341ZM211.386 135.178C214.321 135.666 216.988 134.956 219.388 133.048C221.788 131.14 223.258 128.561 223.799 125.31C224.339 122.059 223.783 119.142 222.13 116.56C220.478 113.978 218.184 112.443 215.249 111.955C212.314 111.467 209.647 112.177 207.247 114.085C204.848 115.992 203.377 118.572 202.837 121.823C202.296 125.074 202.852 127.991 204.505 130.573C206.158 133.155 208.452 134.69 211.386 135.178Z" fill="#1D1B20"/>
</svg>
