<svg width="291" height="251" viewBox="0 0 291 251" fill="none" xmlns="http://www.w3.org/2000/svg">
    <ellipse cx="129.5" cy="120" rx="89.5" ry="88" fill="#D9D9D9"/>
    <path fill-rule="evenodd" clip-rule="evenodd" d="M96.2912 120.245H118.264C120.048 120.245 121.811 120.668 123.39 121.472C124.969 122.277 126.338 123.451 127.363 124.885C128.387 126.331 129.041 127.985 129.274 129.715C129.507 131.446 129.312 133.204 128.704 134.85L115.626 172.955C114.03 177.262 112.966 180.125 105.186 180.125C93.7033 180.125 81.4895 176.543 71.0656 173.479C68.4499 172.711 65.9451 171.976 63.5954 171.341H62.9581V119.154C72.1454 110.498 80.0474 100.681 86.4437 89.9762C87.5191 87.9997 89.2858 86.4457 91.4367 85.5841C93.5679 84.7355 95.9473 84.6454 98.1422 85.3301C100.337 86.018 102.221 87.4309 103.462 89.3359C104.709 91.2409 105.235 93.5057 104.953 95.7441L96.2912 120.245ZM36.1475 121.917H51.7917V164.25C51.7917 167.057 50.624 169.749 48.5454 171.734C46.4669 173.718 43.6478 174.833 40.7083 174.833C37.7689 174.833 34.9498 173.718 32.8712 171.734C30.7927 169.749 29.625 167.057 29.625 164.25V128.145C29.625 124.705 32.551 121.917 36.1475 121.917Z" fill="black"/>
    <path d="M193.792 37.4167L176.5 53.4584L159.208 37.4167M148.833 53.4584H204.167C207.987 53.4584 211.083 56.3312 211.083 59.875V95.1667C211.083 98.7105 207.987 101.583 204.167 101.583H148.833C145.013 101.583 141.917 98.7105 141.917 95.1667V59.875C141.917 56.3312 145.013 53.4584 148.833 53.4584Z" stroke="#1E1E1E" stroke-width="4" stroke-linecap="round" stroke-linejoin="round"/>
    <path fill-rule="evenodd" clip-rule="evenodd" d="M215.778 158.745V164.517C217.633 165.004 219.387 165.747 220.995 166.71L225.019 162.625L232.173 169.878L228.144 173.958C229.094 175.588 229.827 177.366 230.307 179.247H236V189.498H230.307C229.827 191.379 229.094 193.158 228.144 194.788L232.173 198.867L225.019 206.12L220.995 202.035C219.366 203.01 217.61 203.749 215.778 204.229V210H205.667V204.229C203.835 203.749 202.079 203.01 200.449 202.035L196.425 206.12L189.271 198.867L193.301 194.788C192.339 193.136 191.611 191.355 191.137 189.498H185.444V179.247H191.137C191.617 177.366 192.35 175.588 193.301 173.958L189.271 169.878L196.425 162.625L200.449 166.71C202.079 165.735 203.835 164.997 205.667 164.517V158.745H215.778ZM217.83 177.084L217.911 177.166C219.701 179.001 220.813 181.523 220.833 184.301V184.444C220.82 186.463 220.219 188.432 219.106 190.106C217.994 191.78 216.418 193.083 214.578 193.852C212.737 194.622 210.713 194.824 208.76 194.432C206.807 194.04 205.012 193.073 203.599 191.651L203.548 191.589C201.705 189.657 200.684 187.069 200.705 184.381C200.726 181.693 201.788 179.121 203.661 177.219C205.535 175.317 208.07 174.237 210.721 174.212C213.372 174.187 215.922 175.218 217.83 177.084ZM155.111 148.494C155.112 145.65 155.697 142.837 156.828 140.235C157.959 137.632 159.612 135.296 161.682 133.376C163.752 131.456 166.193 129.994 168.85 129.082C171.507 128.17 174.323 127.829 177.117 128.08C179.912 128.331 182.624 129.168 185.082 130.54C187.54 131.911 189.689 133.785 191.394 136.044C193.099 138.303 194.321 140.897 194.984 143.661C195.646 146.424 195.734 149.297 195.242 152.098C188.12 155.621 182.363 161.457 178.887 168.678C175.977 169.205 172.988 169.079 170.13 168.307C167.273 167.536 164.618 166.139 162.351 164.215C160.084 162.29 158.261 159.885 157.01 157.169C155.759 154.453 155.111 151.492 155.111 148.494ZM176.799 174.122H165.222C159.859 174.122 154.715 176.282 150.923 180.127C147.131 183.971 145 189.186 145 194.624V199.749C145 202.468 146.065 205.075 147.961 206.998C149.858 208.92 152.429 210 155.111 210H185.955C182.588 206.663 179.913 202.676 178.089 198.275C176.265 193.874 175.328 189.147 175.333 184.373C175.333 180.81 175.844 177.371 176.799 174.122Z" fill="black"/>
</svg>
